<?xml version="1.0" standalone="no"?>
<!DOCTYPE svg PUBLIC "-//W3C//DTD SVG 20010904//EN"
 "http://www.w3.org/TR/2001/REC-SVG-20010904/DTD/svg10.dtd">
<svg version="1.0" xmlns="http://www.w3.org/2000/svg"
 width="2000.000000pt" height="2000.000000pt" viewBox="0 0 2000.000000 2000.000000"
 preserveAspectRatio="xMidYMid meet">
<metadata>
Created by potrace 1.11, written by Peter Selinger 2001-2013
</metadata>
<g transform="translate(0.000000,2000.000000) scale(0.100000,-0.100000)"
fill="#000000" stroke="none">
<path d="M9769 16506 c-2 -2 -49 -7 -104 -10 -55 -4 -109 -9 -120 -11 -11 -2
-45 -7 -75 -10 -65 -6 -140 -19 -275 -45 -55 -11 -109 -22 -121 -24 -161 -31
-507 -145 -692 -228 -35 -15 -65 -28 -67 -28 -5 0 -242 -116 -265 -130 -8 -5
-60 -35 -115 -66 -457 -262 -900 -653 -1218 -1077 -85 -112 -208 -292 -243
-356 -10 -18 -24 -41 -29 -50 -70 -111 -208 -393 -278 -572 -62 -157 -144
-416 -171 -540 -3 -13 -12 -54 -20 -90 -18 -78 -24 -111 -32 -159 -3 -19 -9
-60 -14 -90 -6 -30 -12 -77 -15 -105 -3 -27 -7 -63 -10 -80 -25 -182 -25 -760
0 -890 2 -11 7 -47 11 -80 9 -83 11 -99 18 -132 3 -15 8 -44 11 -63 14 -90 70
-337 95 -415 60 -190 77 -243 107 -320 115 -301 261 -583 437 -845 53 -80 207
-285 251 -335 15 -16 50 -57 78 -90 134 -153 326 -338 492 -473 90 -73 261
-198 323 -237 9 -5 41 -26 72 -46 209 -137 526 -292 803 -393 100 -37 382
-121 437 -131 16 -3 59 -12 94 -20 90 -21 289 -54 361 -61 33 -3 65 -7 72 -9
72 -24 797 -24 821 -1 2 3 -6 16 -19 29 -13 13 -62 66 -109 117 -47 51 -96
105 -110 120 -14 15 -63 69 -110 120 -47 51 -96 105 -110 120 -14 15 -63 69
-110 120 -47 51 -96 105 -110 120 -14 15 -57 62 -97 106 -40 43 -97 106 -128
139 -61 65 -75 90 -75 136 0 25 46 123 117 249 11 19 46 85 78 145 32 61 64
119 72 130 21 32 16 40 -39 59 -29 10 -119 43 -200 73 -111 40 -155 52 -180
48 -177 -31 -354 -288 -472 -685 -26 -88 -49 -121 -96 -138 -14 -5 -95 -8
-180 -6 -85 1 -362 5 -614 9 -497 7 -497 7 -533 62 -34 52 -23 97 65 265 158
302 334 591 510 840 51 72 91 132 89 134 -2 2 -55 21 -119 44 -319 109 -586
271 -804 485 -86 85 -177 193 -203 242 -37 72 23 173 104 173 13 0 57 -7 97
-16 110 -23 225 -42 298 -49 36 -3 83 -8 105 -10 52 -6 412 -6 445 -1 14 2 54
7 90 11 138 13 170 17 315 46 187 37 300 67 485 129 233 77 345 130 467 218
98 71 270 190 319 219 10 6 73 45 138 85 136 83 133 81 218 127 35 18 86 46
114 62 88 48 322 164 464 229 120 55 408 181 525 230 11 5 51 23 88 39 38 17
70 31 72 31 3 0 35 14 72 31 38 17 93 42 123 56 205 91 383 204 462 292 121
133 114 293 -24 536 -36 63 -47 75 -70 76 -16 1 -31 2 -35 3 -5 1 -39 6 -78
10 -38 4 -81 9 -95 11 -40 6 -101 14 -155 19 -76 9 -217 26 -245 30 -14 2 -56
7 -95 11 -38 4 -77 8 -85 10 -8 2 -44 6 -80 10 -36 4 -72 8 -80 10 -8 1 -49 6
-90 11 -41 4 -77 8 -80 9 -3 1 -36 5 -75 9 -38 4 -81 9 -95 11 -14 2 -50 6
-80 9 -30 4 -71 9 -90 11 -38 6 -73 10 -165 20 -33 4 -73 9 -90 11 -16 2 -57
6 -90 9 -33 4 -67 8 -75 10 -8 2 -42 7 -75 11 -76 8 -104 21 -132 63 -33 49
-29 85 23 181 155 288 442 554 764 707 129 62 324 133 404 147 14 2 29 7 34
10 10 6 237 45 302 52 25 3 59 7 75 10 17 2 110 7 208 10 l179 7 151 77 c244
123 499 194 695 194 17 0 32 2 32 6 0 20 -328 248 -515 358 -101 59 -376 202
-389 202 -3 0 -29 11 -58 24 -271 124 -724 253 -1028 292 -25 3 -56 7 -70 10
-14 2 -52 7 -85 10 -33 3 -76 7 -95 10 -39 6 -575 15 -581 10z"/>
<path d="M12403 15320 c-173 -30 -332 -91 -534 -206 l-95 -54 -145 0 c-173 0
-236 -4 -404 -26 -139 -18 -373 -80 -490 -129 -161 -68 -290 -142 -408 -232
-81 -62 -222 -204 -270 -270 l-37 -53 28 -2 c15 0 32 -2 37 -3 6 -1 44 -5 85
-9 41 -5 82 -10 90 -11 8 -2 40 -6 70 -9 30 -4 71 -9 90 -11 19 -3 58 -7 85
-10 28 -3 66 -8 85 -10 19 -3 94 -12 165 -20 72 -9 146 -18 165 -20 48 -7 105
-13 170 -20 30 -3 66 -8 80 -10 14 -3 48 -7 75 -10 28 -3 68 -7 90 -10 40 -5
54 -7 170 -20 66 -7 114 -13 160 -20 17 -2 55 -7 85 -10 161 -16 181 -20 218
-39 34 -18 92 -105 162 -245 72 -144 101 -247 104 -366 5 -189 -131 -565 -315
-873 -53 -87 -168 -259 -200 -297 -10 -11 -46 -56 -80 -100 -74 -92 -332 -356
-421 -430 -33 -27 -65 -55 -72 -60 -29 -27 -220 -168 -304 -224 -104 -70 -149
-83 -200 -57 -63 33 -83 97 -51 163 11 24 24 43 29 43 14 0 252 170 360 258
121 99 380 355 461 457 71 89 157 207 195 265 45 71 52 82 75 125 12 22 27 47
34 55 7 8 15 24 19 35 5 17 -18 9 -137 -50 -78 -38 -167 -81 -197 -94 -30 -13
-168 -72 -307 -131 -968 -417 -1470 -712 -2038 -1199 -122 -104 -434 -415
-535 -531 -40 -47 -76 -87 -80 -90 -9 -7 -262 -332 -280 -360 -8 -12 -24 -35
-36 -49 -99 -124 -484 -754 -484 -793 0 -3 93 -7 208 -8 114 -1 311 -3 439 -5
167 -2 235 0 241 8 5 7 17 35 26 62 111 312 231 512 386 637 105 85 200 117
356 122 182 7 610 110 949 229 550 194 1027 485 1406 857 121 119 159 160 253
270 73 87 226 303 272 386 15 27 35 63 45 79 25 40 142 281 159 325 7 19 17
39 22 44 4 6 8 16 8 24 0 8 7 28 15 45 19 42 80 247 95 320 8 38 22 70 40 90
26 29 34 32 85 32 54 0 59 -2 90 -38 37 -43 39 -77 12 -187 -80 -328 -295
-769 -532 -1094 -142 -195 -196 -257 -375 -437 -206 -206 -381 -350 -606 -496
-208 -135 -493 -286 -669 -354 -33 -13 -65 -27 -71 -31 -10 -7 -205 -78 -324
-118 -30 -10 -113 -34 -185 -54 -71 -20 -148 -41 -170 -47 l-40 -12 60 -19
c239 -79 595 -167 835 -207 134 -23 156 -26 315 -46 163 -20 622 -27 770 -11
152 16 189 21 291 42 44 8 90 17 104 20 14 3 50 12 80 20 30 8 62 17 70 19 99
25 277 93 400 153 78 37 257 141 300 174 14 11 61 46 105 80 183 139 418 406
558 634 94 155 247 479 257 549 1 3 7 20 15 38 37 90 102 344 134 527 23 131
21 461 -4 663 -14 105 -16 124 -20 150 -3 15 -7 42 -10 60 -28 173 -80 397
-130 557 -184 590 -494 1124 -918 1583 -86 93 -99 100 -237 128 -92 18 -265
18 -377 -1z"/>
<path d="M8648 11344 c-12 -11 -331 -78 -433 -90 -33 -3 -69 -8 -80 -10 -98
-19 -536 -26 -692 -11 -46 4 -83 5 -83 3 0 -8 159 -126 224 -165 94 -58 273
-143 376 -179 143 -50 242 -75 249 -63 24 39 242 282 365 409 56 57 103 105
105 108 6 6 -25 5 -31 -2z"/>
<path d="M13690 10639 c-359 -443 -859 -754 -1435 -890 -49 -12 -101 -23 -115
-25 -14 -3 -50 -9 -80 -15 -30 -5 -80 -12 -110 -15 -30 -3 -61 -7 -69 -10 -56
-18 -550 -25 -736 -11 -55 5 -111 9 -124 10 -26 2 -35 -10 -120 -167 -41 -76
-42 -79 -24 -99 45 -52 81 -92 118 -131 31 -32 336 -363 390 -422 5 -6 57 -62
115 -124 58 -62 106 -116 108 -121 8 -20 51 -3 267 107 488 248 895 572 1276
1014 194 226 417 569 552 850 33 69 62 128 64 133 14 24 -12 -4 -77 -84z"/>
<path d="M9859 9767 c-42 -78 -100 -185 -127 -237 l-51 -95 51 -55 c28 -30 96
-104 152 -165 55 -60 121 -132 146 -159 25 -27 54 -59 65 -70 27 -29 229 -248
290 -316 28 -30 55 -59 61 -65 5 -5 59 -64 120 -130 60 -66 114 -125 120 -132
9 -10 41 -6 150 16 132 28 347 84 444 118 25 8 51 16 58 17 31 5 29 23 -10 66
-58 65 -207 226 -248 270 -19 21 -73 79 -120 130 -118 129 -124 135 -226 246
-180 196 -179 189 -84 364 34 63 67 121 73 128 5 7 7 15 4 19 -5 5 -184 43
-267 57 -14 2 -52 11 -85 19 -33 9 -75 19 -94 22 -19 3 -37 8 -41 10 -3 2 -17
6 -31 9 -29 6 -241 63 -260 71 -10 3 -38 -40 -90 -138z"/>
<path d="M1668 7115 c-2 -2 -82 -5 -178 -9 -96 -3 -186 -8 -200 -10 -14 -2
-49 -7 -78 -10 -217 -25 -403 -82 -537 -167 -90 -57 -170 -147 -216 -244 -71
-151 -69 -114 -69 -1379 0 -1091 1 -1134 20 -1209 61 -241 216 -395 490 -485
96 -31 206 -56 290 -66 25 -3 74 -9 110 -13 86 -10 521 -10 635 0 221 20 486
87 629 159 176 88 316 216 395 362 45 82 59 124 86 246 21 91 23 127 21 265
-3 140 -6 171 -30 250 -83 274 -268 458 -541 539 -78 23 -79 23 -45 31 54 12
200 77 253 113 202 140 310 374 307 667 -1 102 -3 123 -19 210 -42 222 -165
404 -357 528 -147 95 -377 173 -569 194 -27 3 -53 7 -57 9 -3 2 -64 7 -135 10
-70 3 -145 7 -165 8 -21 2 -39 2 -40 1z m205 -619 c37 -4 78 -10 90 -12 12 -3
33 -7 47 -10 94 -18 219 -83 281 -146 48 -48 91 -126 106 -189 15 -62 8 -230
-10 -285 -48 -140 -127 -202 -318 -251 -13 -3 -143 -7 -289 -10 -146 -2 -285
-8 -310 -14 -100 -23 -152 -99 -153 -223 -1 -127 42 -209 128 -247 40 -18 72
-20 312 -23 291 -4 369 -14 471 -63 61 -30 134 -98 161 -151 42 -84 56 -236
32 -344 -26 -113 -94 -208 -196 -273 -64 -40 -156 -76 -225 -89 -14 -2 -41 -7
-60 -10 -82 -16 -323 -22 -410 -11 -151 19 -214 36 -303 82 -81 43 -138 104
-169 182 l-23 56 -2 840 c-1 528 2 860 9 895 33 184 188 280 478 297 52 3 96
6 97 7 5 5 191 -2 256 -8z"/>
<path d="M4938 7116 c-1 -2 -57 -6 -123 -9 -523 -27 -960 -262 -1220 -657 -85
-128 -174 -326 -212 -465 -23 -88 -51 -224 -58 -285 -3 -25 -10 -76 -15 -115
-13 -110 -5 -484 14 -610 63 -414 213 -745 450 -995 127 -134 245 -219 421
-305 240 -117 441 -159 750 -160 196 0 257 6 415 41 301 68 532 194 745 409
255 257 409 593 471 1025 30 218 26 549 -11 767 -68 405 -251 753 -513 978
-192 165 -423 277 -687 335 -112 24 -142 28 -285 35 -63 4 -120 8 -127 10 -6
2 -13 2 -15 1z m202 -662 c271 -47 484 -177 632 -384 76 -108 154 -287 173
-399 3 -19 8 -37 10 -41 18 -30 28 -407 12 -514 -13 -93 -56 -244 -95 -333
-50 -118 -120 -221 -207 -309 -146 -147 -287 -220 -520 -269 -71 -15 -329 -15
-405 0 -328 62 -586 277 -718 595 -64 157 -94 313 -97 513 -8 566 246 972 698
1111 142 44 361 57 517 30z"/>
<path d="M8288 7116 c-1 -2 -75 -6 -163 -10 -176 -7 -210 -10 -335 -32 -468
-83 -733 -302 -810 -669 -18 -86 -18 -151 -17 -1355 l2 -1265 30 -60 c33 -65
92 -117 153 -135 73 -22 188 -24 257 -5 112 30 174 100 201 227 3 13 5 536 5
1163 0 674 4 1166 10 1204 27 181 153 288 394 337 61 12 156 19 280 19 192 0
278 -11 385 -51 217 -82 327 -238 336 -474 7 -217 -54 -352 -199 -444 -115
-72 -241 -102 -472 -111 -210 -9 -229 -13 -288 -65 -88 -77 -108 -282 -37
-393 33 -52 100 -96 168 -109 47 -9 218 -11 302 -3 113 10 187 17 205 21 11 2
54 11 95 19 204 40 365 107 507 213 85 63 140 122 197 212 113 176 160 360
160 620 0 172 -4 211 -26 320 -34 163 -67 246 -145 362 -187 280 -537 433
-1038 454 -71 3 -135 7 -142 9 -6 2 -13 2 -15 1z"/>
<path d="M11488 7116 c-1 -2 -59 -6 -128 -9 -69 -4 -134 -8 -145 -10 -11 -3
-42 -8 -70 -11 -57 -8 -240 -52 -270 -65 -11 -4 -47 -18 -80 -31 -91 -34 -239
-115 -324 -177 -104 -76 -264 -241 -334 -346 -159 -237 -259 -527 -294 -858
-10 -93 -10 -464 0 -544 12 -97 26 -186 38 -240 14 -66 67 -255 78 -280 5 -11
19 -45 31 -75 115 -282 315 -533 555 -695 119 -80 356 -185 476 -211 198 -42
261 -49 454 -49 229 0 329 13 513 66 417 121 745 398 935 792 107 220 165 436
196 717 8 82 7 478 -3 530 -2 14 -7 50 -11 80 -10 90 -45 238 -81 350 -143
437 -444 770 -839 930 -11 4 -36 15 -55 23 -106 46 -349 95 -510 103 -58 3
-110 7 -117 9 -6 2 -13 2 -15 1z m142 -656 c110 -17 136 -22 195 -42 347 -116
572 -381 657 -773 28 -133 35 -378 14 -523 -42 -284 -141 -492 -315 -662 -183
-178 -419 -270 -693 -270 -291 0 -521 87 -703 265 -222 218 -329 504 -329 880
-1 254 43 448 141 633 131 247 391 439 648 479 17 3 46 8 65 12 48 11 252 11
320 1z"/>
<path d="M13745 7051 c-112 -19 -209 -104 -243 -215 -4 -11 -8 -689 -9 -1506
-3 -1622 -5 -1550 54 -1634 76 -105 219 -149 366 -111 114 30 195 110 218 215
8 38 12 227 13 627 1 314 4 574 8 578 5 5 1047 10 1334 6 l40 -1 0 -572 c-1
-414 2 -588 11 -632 32 -155 167 -247 340 -232 153 12 263 105 289 241 10 52
9 2938 0 2990 -27 144 -145 242 -301 250 -157 7 -288 -80 -327 -220 -7 -27
-11 -224 -12 -625 l-1 -585 -680 -1 c-374 0 -685 1 -691 3 -8 3 -11 172 -10
580 1 563 1 577 -20 639 -32 95 -93 157 -187 190 -49 17 -138 24 -192 15z"/>
<path d="M17935 7044 c-27 -7 -53 -13 -56 -14 -4 0 -40 -22 -80 -48 -296 -194
-585 -687 -969 -1652 -332 -835 -467 -1391 -383 -1580 59 -133 194 -195 367
-168 92 14 158 61 210 150 27 47 71 174 80 233 4 21 8 41 11 45 2 3 7 22 10
41 28 159 164 609 293 969 43 121 157 408 197 495 118 259 129 282 205 420 67
122 157 254 195 285 16 13 21 10 61 -34 74 -81 239 -370 318 -556 11 -25 30
-67 42 -95 82 -185 188 -465 265 -695 89 -270 168 -564 156 -577 -4 -3 -194
-7 -424 -8 -232 -2 -434 -7 -453 -12 -166 -47 -256 -170 -244 -335 11 -150 90
-240 249 -284 78 -21 1346 -20 1430 1 81 21 133 59 164 120 24 46 26 59 26
190 0 153 -16 245 -81 483 -85 311 -288 887 -421 1192 -8 19 -19 44 -24 55
-135 314 -217 485 -318 668 -62 112 -142 245 -163 272 -5 6 -36 48 -71 95 -72
98 -191 221 -260 269 -114 78 -225 103 -332 75z"/>
</g>
</svg>
